<mxfile host="app.diagrams.net" modified="2023-03-29T18:47:42.198Z" agent="Mozilla/5.0 (Windows NT 10.0; Win64; x64) AppleWebKit/537.36 (KHTML, like Gecko) Chrome/111.0.0.0 Safari/537.36" version="21.1.2" etag="HBIb3q_lHOFFO5ehMpjs" type="device">
  <diagram id="CpBeuujv9fBhqzRdm5yP" name="Page-1">
    <mxGraphModel dx="882" dy="596" grid="1" gridSize="10" guides="1" tooltips="1" connect="1" arrows="1" fold="1" page="1" pageScale="1" pageWidth="850" pageHeight="1100" math="0" shadow="0">
      <root>
        <mxCell id="0" />
        <mxCell id="1" parent="0" />
        <mxCell id="WhQRN5E1RfcnDJZ8ms3c-8" style="edgeStyle=orthogonalEdgeStyle;rounded=0;orthogonalLoop=1;jettySize=auto;html=1;exitX=1;exitY=0.5;exitDx=0;exitDy=0;" edge="1" parent="1" source="WhQRN5E1RfcnDJZ8ms3c-1" target="WhQRN5E1RfcnDJZ8ms3c-2">
          <mxGeometry relative="1" as="geometry" />
        </mxCell>
        <mxCell id="WhQRN5E1RfcnDJZ8ms3c-1" value="User" style="rounded=1;whiteSpace=wrap;html=1;" vertex="1" parent="1">
          <mxGeometry x="40" y="320" width="120" height="60" as="geometry" />
        </mxCell>
        <mxCell id="WhQRN5E1RfcnDJZ8ms3c-5" style="edgeStyle=orthogonalEdgeStyle;rounded=0;orthogonalLoop=1;jettySize=auto;html=1;exitX=0.5;exitY=1;exitDx=0;exitDy=0;entryX=0;entryY=0.5;entryDx=0;entryDy=0;" edge="1" parent="1" source="WhQRN5E1RfcnDJZ8ms3c-2" target="WhQRN5E1RfcnDJZ8ms3c-4">
          <mxGeometry relative="1" as="geometry" />
        </mxCell>
        <mxCell id="WhQRN5E1RfcnDJZ8ms3c-7" style="edgeStyle=orthogonalEdgeStyle;rounded=0;orthogonalLoop=1;jettySize=auto;html=1;exitX=0.5;exitY=0;exitDx=0;exitDy=0;entryX=0;entryY=0.5;entryDx=0;entryDy=0;" edge="1" parent="1" source="WhQRN5E1RfcnDJZ8ms3c-2" target="WhQRN5E1RfcnDJZ8ms3c-3">
          <mxGeometry relative="1" as="geometry" />
        </mxCell>
        <mxCell id="WhQRN5E1RfcnDJZ8ms3c-2" value="Load balancer" style="rounded=1;whiteSpace=wrap;html=1;" vertex="1" parent="1">
          <mxGeometry x="200" y="320" width="120" height="60" as="geometry" />
        </mxCell>
        <mxCell id="WhQRN5E1RfcnDJZ8ms3c-6" style="edgeStyle=orthogonalEdgeStyle;rounded=0;orthogonalLoop=1;jettySize=auto;html=1;exitX=0;exitY=0.5;exitDx=0;exitDy=0;" edge="1" parent="1" source="WhQRN5E1RfcnDJZ8ms3c-3" target="WhQRN5E1RfcnDJZ8ms3c-2">
          <mxGeometry relative="1" as="geometry" />
        </mxCell>
        <mxCell id="WhQRN5E1RfcnDJZ8ms3c-14" style="edgeStyle=orthogonalEdgeStyle;rounded=0;orthogonalLoop=1;jettySize=auto;html=1;exitX=0.5;exitY=0;exitDx=0;exitDy=0;entryX=0.5;entryY=0;entryDx=0;entryDy=0;" edge="1" parent="1" source="WhQRN5E1RfcnDJZ8ms3c-3" target="WhQRN5E1RfcnDJZ8ms3c-10">
          <mxGeometry relative="1" as="geometry">
            <Array as="points">
              <mxPoint x="420" y="180" />
              <mxPoint x="740" y="180" />
            </Array>
          </mxGeometry>
        </mxCell>
        <mxCell id="WhQRN5E1RfcnDJZ8ms3c-3" value="Read server" style="rounded=1;whiteSpace=wrap;html=1;" vertex="1" parent="1">
          <mxGeometry x="360" y="200" width="120" height="60" as="geometry" />
        </mxCell>
        <mxCell id="WhQRN5E1RfcnDJZ8ms3c-19" style="edgeStyle=orthogonalEdgeStyle;rounded=0;orthogonalLoop=1;jettySize=auto;html=1;exitX=0.5;exitY=1;exitDx=0;exitDy=0;" edge="1" parent="1" source="WhQRN5E1RfcnDJZ8ms3c-4" target="WhQRN5E1RfcnDJZ8ms3c-18">
          <mxGeometry relative="1" as="geometry" />
        </mxCell>
        <mxCell id="WhQRN5E1RfcnDJZ8ms3c-22" style="edgeStyle=orthogonalEdgeStyle;rounded=0;orthogonalLoop=1;jettySize=auto;html=1;exitX=1;exitY=0.5;exitDx=0;exitDy=0;entryX=0;entryY=0.5;entryDx=0;entryDy=0;" edge="1" parent="1" source="WhQRN5E1RfcnDJZ8ms3c-4" target="WhQRN5E1RfcnDJZ8ms3c-15">
          <mxGeometry relative="1" as="geometry" />
        </mxCell>
        <mxCell id="WhQRN5E1RfcnDJZ8ms3c-4" value="Write server" style="rounded=1;whiteSpace=wrap;html=1;" vertex="1" parent="1">
          <mxGeometry x="360" y="440" width="120" height="60" as="geometry" />
        </mxCell>
        <mxCell id="WhQRN5E1RfcnDJZ8ms3c-12" style="edgeStyle=orthogonalEdgeStyle;rounded=0;orthogonalLoop=1;jettySize=auto;html=1;exitX=0;exitY=0.5;exitDx=0;exitDy=0;" edge="1" parent="1" source="WhQRN5E1RfcnDJZ8ms3c-9" target="WhQRN5E1RfcnDJZ8ms3c-3">
          <mxGeometry relative="1" as="geometry" />
        </mxCell>
        <mxCell id="WhQRN5E1RfcnDJZ8ms3c-9" value="Aggregator server" style="rounded=1;whiteSpace=wrap;html=1;" vertex="1" parent="1">
          <mxGeometry x="520" y="200" width="120" height="60" as="geometry" />
        </mxCell>
        <mxCell id="WhQRN5E1RfcnDJZ8ms3c-13" style="edgeStyle=orthogonalEdgeStyle;rounded=0;orthogonalLoop=1;jettySize=auto;html=1;exitX=0;exitY=0.5;exitDx=0;exitDy=0;" edge="1" parent="1" source="WhQRN5E1RfcnDJZ8ms3c-10" target="WhQRN5E1RfcnDJZ8ms3c-9">
          <mxGeometry relative="1" as="geometry" />
        </mxCell>
        <mxCell id="WhQRN5E1RfcnDJZ8ms3c-20" style="edgeStyle=orthogonalEdgeStyle;rounded=0;orthogonalLoop=1;jettySize=auto;html=1;exitX=0.5;exitY=1;exitDx=0;exitDy=0;" edge="1" parent="1" source="WhQRN5E1RfcnDJZ8ms3c-10" target="WhQRN5E1RfcnDJZ8ms3c-15">
          <mxGeometry relative="1" as="geometry" />
        </mxCell>
        <mxCell id="WhQRN5E1RfcnDJZ8ms3c-25" style="edgeStyle=orthogonalEdgeStyle;rounded=0;orthogonalLoop=1;jettySize=auto;html=1;exitX=1;exitY=0.5;exitDx=0;exitDy=0;entryX=1;entryY=0.5;entryDx=0;entryDy=0;" edge="1" parent="1" source="WhQRN5E1RfcnDJZ8ms3c-10" target="WhQRN5E1RfcnDJZ8ms3c-17">
          <mxGeometry relative="1" as="geometry" />
        </mxCell>
        <mxCell id="WhQRN5E1RfcnDJZ8ms3c-27" style="edgeStyle=orthogonalEdgeStyle;rounded=0;orthogonalLoop=1;jettySize=auto;html=1;exitX=0.75;exitY=0;exitDx=0;exitDy=0;entryX=1;entryY=0.5;entryDx=0;entryDy=0;" edge="1" parent="1" source="WhQRN5E1RfcnDJZ8ms3c-10" target="WhQRN5E1RfcnDJZ8ms3c-23">
          <mxGeometry relative="1" as="geometry">
            <Array as="points">
              <mxPoint x="770" y="160" />
              <mxPoint x="660" y="160" />
              <mxPoint x="660" y="110" />
            </Array>
          </mxGeometry>
        </mxCell>
        <mxCell id="WhQRN5E1RfcnDJZ8ms3c-10" value="Quadtree server" style="rounded=1;whiteSpace=wrap;html=1;" vertex="1" parent="1">
          <mxGeometry x="680" y="200" width="120" height="60" as="geometry" />
        </mxCell>
        <mxCell id="WhQRN5E1RfcnDJZ8ms3c-21" style="edgeStyle=orthogonalEdgeStyle;rounded=0;orthogonalLoop=1;jettySize=auto;html=1;exitX=0.5;exitY=0;exitDx=0;exitDy=0;entryX=0.5;entryY=1;entryDx=0;entryDy=0;" edge="1" parent="1" source="WhQRN5E1RfcnDJZ8ms3c-15" target="WhQRN5E1RfcnDJZ8ms3c-10">
          <mxGeometry relative="1" as="geometry" />
        </mxCell>
        <mxCell id="WhQRN5E1RfcnDJZ8ms3c-15" value="Relational DB" style="rounded=1;whiteSpace=wrap;html=1;" vertex="1" parent="1">
          <mxGeometry x="680" y="440" width="120" height="60" as="geometry" />
        </mxCell>
        <mxCell id="WhQRN5E1RfcnDJZ8ms3c-24" style="edgeStyle=orthogonalEdgeStyle;rounded=0;orthogonalLoop=1;jettySize=auto;html=1;exitX=1;exitY=0.5;exitDx=0;exitDy=0;entryX=1;entryY=0.5;entryDx=0;entryDy=0;" edge="1" parent="1" source="WhQRN5E1RfcnDJZ8ms3c-17" target="WhQRN5E1RfcnDJZ8ms3c-10">
          <mxGeometry relative="1" as="geometry" />
        </mxCell>
        <mxCell id="WhQRN5E1RfcnDJZ8ms3c-17" value="Cache" style="rounded=1;whiteSpace=wrap;html=1;" vertex="1" parent="1">
          <mxGeometry x="680" y="80" width="120" height="60" as="geometry" />
        </mxCell>
        <mxCell id="WhQRN5E1RfcnDJZ8ms3c-18" value="Blob storage" style="rounded=1;whiteSpace=wrap;html=1;" vertex="1" parent="1">
          <mxGeometry x="360" y="560" width="120" height="60" as="geometry" />
        </mxCell>
        <mxCell id="WhQRN5E1RfcnDJZ8ms3c-26" style="edgeStyle=orthogonalEdgeStyle;rounded=0;orthogonalLoop=1;jettySize=auto;html=1;exitX=1;exitY=0.5;exitDx=0;exitDy=0;entryX=0.75;entryY=0;entryDx=0;entryDy=0;" edge="1" parent="1" source="WhQRN5E1RfcnDJZ8ms3c-23" target="WhQRN5E1RfcnDJZ8ms3c-10">
          <mxGeometry relative="1" as="geometry">
            <Array as="points">
              <mxPoint x="660" y="110" />
              <mxPoint x="660" y="160" />
              <mxPoint x="770" y="160" />
            </Array>
          </mxGeometry>
        </mxCell>
        <mxCell id="WhQRN5E1RfcnDJZ8ms3c-23" value="Key-value store" style="rounded=1;whiteSpace=wrap;html=1;" vertex="1" parent="1">
          <mxGeometry x="520" y="80" width="120" height="60" as="geometry" />
        </mxCell>
      </root>
    </mxGraphModel>
  </diagram>
</mxfile>
